<mxfile host="app.diagrams.net" modified="2023-11-04T07:35:04.421Z" agent="Mozilla/5.0 (Windows NT 10.0; Win64; x64) AppleWebKit/537.36 (KHTML, like Gecko) Chrome/117.0.0.0 Safari/537.36" version="21.6.2" etag="B1xmgDK6HeCnysYqD_oz" type="github">
  <diagram name="第 1 页" id="N0-CxhGlmVpB74cpehke">
    <mxGraphModel>
      <root>
        <mxCell id="0" />
        <mxCell id="1" parent="0" />
      </root>
    </mxGraphModel>
  </diagram>
</mxfile>
